<svg width="42" height="42" viewBox="0 0 42 42" fill="none" xmlns="http://www.w3.org/2000/svg">
<path d="M4.375 21C4.375 13.1635 4.375 9.2435 6.80925 6.80925C9.2435 4.375 13.1617 4.375 21 4.375C28.8365 4.375 32.7565 4.375 35.1907 6.80925C37.625 9.2435 37.625 13.1617 37.625 21C37.625 28.8365 37.625 32.7565 35.1907 35.1907C32.7565 37.625 28.8383 37.625 21 37.625C13.1635 37.625 9.2435 37.625 6.80925 35.1907C4.375 32.7565 4.375 28.8383 4.375 21Z" stroke="#97AFE3" stroke-width="4" stroke-linecap="round" stroke-linejoin="round"/>
<path d="M28 21H14M28 21C28 19.775 24.5105 17.486 23.625 16.625M28 21C28 22.225 24.5105 24.514 23.625 25.375" stroke="#97AFE3" stroke-width="3" stroke-linecap="round" stroke-linejoin="round"/>
</svg>
