<svg width="42" height="42" viewBox="0 0 42 42" fill="none" xmlns="http://www.w3.org/2000/svg">
<path fill-rule="evenodd" clip-rule="evenodd" d="M26.25 11.8125C26.25 13.2049 25.6969 14.5402 24.7123 15.5248C23.7277 16.5094 22.3924 17.0625 21 17.0625C19.6076 17.0625 18.2723 16.5094 17.2877 15.5248C16.3031 14.5402 15.75 13.2049 15.75 11.8125C15.75 10.4201 16.3031 9.08475 17.2877 8.10019C18.2723 7.11562 19.6076 6.5625 21 6.5625C22.3924 6.5625 23.7277 7.11562 24.7123 8.10019C25.6969 9.08475 26.25 10.4201 26.25 11.8125ZM30.1875 11.8125C30.1875 14.2492 29.2195 16.5861 27.4965 18.309C25.7736 20.032 23.4367 21 21 21C18.5633 21 16.2264 20.032 14.5035 18.309C12.7805 16.5861 11.8125 14.2492 11.8125 11.8125C11.8125 9.37582 12.7805 7.03895 14.5035 5.31596C16.2264 3.59297 18.5633 2.625 21 2.625C23.4367 2.625 25.7736 3.59297 27.4965 5.31596C29.2195 7.03895 30.1875 9.37582 30.1875 11.8125ZM6.5625 32.8125C6.5625 32.277 7.14 30.6889 10.0275 28.9826C12.6997 27.405 16.59 26.25 21 26.25C25.41 26.25 29.3003 27.405 31.9725 28.9826C34.86 30.6889 35.4375 32.277 35.4375 32.8125C35.4375 33.5087 35.1609 34.1764 34.6687 34.6687C34.1764 35.1609 33.5087 35.4375 32.8125 35.4375H9.1875C8.49131 35.4375 7.82363 35.1609 7.33134 34.6687C6.83906 34.1764 6.5625 33.5087 6.5625 32.8125ZM21 22.3125C10.8938 22.3125 2.625 27.5625 2.625 32.8125C2.625 34.553 3.3164 36.2222 4.54711 37.4529C5.77782 38.6836 7.44702 39.375 9.1875 39.375H32.8125C34.553 39.375 36.2222 38.6836 37.4529 37.4529C38.6836 36.2222 39.375 34.553 39.375 32.8125C39.375 27.5625 31.1062 22.3125 21 22.3125Z" fill="#97AFE3"/>
</svg>
